<svg width="82" height="79" viewBox="0 0 82 79" fill="none" xmlns="http://www.w3.org/2000/svg">
<path d="M0 10C0 4.47715 4.47715 0 10 0H72C77.5228 0 82 4.47715 82 10V69C82 74.5228 77.5228 79 72 79H10C4.47715 79 0 74.5228 0 69V10Z" fill="#1363DF"/>
<path d="M16 46.329C16 42.7491 18.8626 39.847 22.3939 39.847C25.9251 39.847 28.7877 42.7491 28.7877 46.329V53.5179C28.7877 57.0979 25.9251 60 22.3939 60C18.8626 60 16 57.0979 16 53.518V46.329Z" fill="white"/>
<path d="M16 15.482C16 11.9021 18.8626 9 22.3939 9C25.9251 9 28.7877 11.9021 28.7877 15.482C28.7877 19.062 25.9251 21.9641 22.3939 21.9641C18.8626 21.9641 16 19.062 16 15.482Z" fill="white"/>
<path d="M34.6061 30.4848C34.6061 26.9049 37.4688 24.0028 41 24.0028C44.5312 24.0028 47.3939 26.9049 47.3939 30.4848V53.5179C47.3939 57.0978 44.5312 59.9999 41 59.9999C37.4688 59.9999 34.6061 57.0978 34.6061 53.5179V30.4848Z" fill="white"/>
<path d="M53.2123 15.4821C53.2123 11.9021 56.0749 9 59.6061 9C63.1374 9 66 11.9021 66 15.482V53.5177C66 57.0976 63.1374 59.9997 59.6061 59.9997C56.0749 59.9997 53.2123 57.0976 53.2123 53.5177V15.4821Z" fill="white"/>
</svg>
